# xmcd CD database file
#
# Track frame offsets:
#	150
#	18225
#	44775
#	62850
#
# Disc length: 1188 seconds
#
# Revision: 2
# Processed by: cddbd v1.5PL3 Copyright (c) Steve Scherf et al.
# Submitted via: CDex 1.51
#
DISCID=3304a204
DTITLE=丹下桜 - CATCH UP DREAM/それがあなたのいいところ
DYEAR=1998
DGENRE=JPop
TTITLE0=CATCH UP DREAM
TTITLE1=それがあなたのいいところ
TTITLE2=CATCH UP DREAM (Karaoke)
TTITLE3=それがあなたのいいところ (Karaoke)
EXTD=YEAR: 1998
EXTT0=
EXTT1=
EXTT2=
EXTT3=
PLAYORDER=
